<?xml version="1.0" standalone="no"?><!DOCTYPE svg PUBLIC "-//W3C//DTD SVG 1.1//EN" "http://www.w3.org/Graphics/SVG/1.1/DTD/svg11.dtd"><svg t="1776262593965" class="icon" viewBox="0 0 1024 1024" version="1.1" xmlns="http://www.w3.org/2000/svg" p-id="39192" xmlns:xlink="http://www.w3.org/1999/xlink" width="256" height="256"><path d="M512 1008.64c-244.59264 0-447.88736-176.81408-489.0368-409.6l31.232 0.00512C94.96576 814.76608 284.43136 977.92 512 977.92s417.03424-163.15392 457.8048-378.87488h31.232C959.88736 831.82592 756.59264 1008.64 512 1008.64z m0-993.28c246.38464 0 450.86208 179.40992 489.91744 414.72h-31.17568C932.03456 211.82464 741.376 46.08 512 46.08 282.624 46.08 91.97056 211.82464 53.25824 430.08H22.08256C61.13792 194.7648 265.61536 15.36 512 15.36z" fill="#000000" p-id="39193"></path><path d="M450.56 558.08h117.76L510.99648 394.24h-1.22368L450.56 558.08z m11.62752-266.24h101.55008L732.16 732.16h-102.81472l-34.1248-98.07872H426.79808L391.57248 732.16H291.84l170.34752-440.32z" fill="#5459F6" p-id="39194"></path><path d="M451.6608 276.48h122.64448l180.1728 471.04h-136.05376l-34.1248-98.08384H437.60128L402.37568 747.52H269.42976l182.23104-471.04z m101.504 30.72H472.71424l-158.46912 409.6h66.51904l35.2256-98.07872h190.15168L640.256 716.8h69.57568l-156.672-409.6zM498.9952 378.88h22.89664l68.07552 194.56H428.67712l70.31296-194.56z m11.1616 59.47392L472.43776 542.72h74.23488L510.1568 438.35392zM208.55296 379.43296l8.17664 29.61408-185.43616 51.2-8.17664-29.61408zM814.65344 649.68704l-8.17664-29.61408 185.43616-51.2 8.17664 29.61408z" fill="#000000" p-id="39195"></path></svg>