<?xml version="1.0" standalone="no"?><!DOCTYPE svg PUBLIC "-//W3C//DTD SVG 1.1//EN" "http://www.w3.org/Graphics/SVG/1.1/DTD/svg11.dtd"><svg t="1776262694776" class="icon" viewBox="0 0 1028 1024" version="1.1" xmlns="http://www.w3.org/2000/svg" p-id="43405" width="257" height="256" xmlns:xlink="http://www.w3.org/1999/xlink"><path d="M982.887602 311.968059a511.790737 511.790737 0 1 0 40.780138 197.783671 507.712723 507.712723 0 0 0-40.780138-197.783671z m-185.54963 468.971591h-12.234042a30.585104 30.585104 0 0 1-26.50709-16.312055l-81.560276-171.276582H352.834464l-87.677298 171.276582a30.585104 30.585104 0 0 1-26.50709 16.312055l-14.273048-4.078014a30.585104 30.585104 0 0 1-12.234042-40.780138L493.525941 189.627643h44.858152l4.078014 4.078014h4.078014l265.070899 548.492862a30.585104 30.585104 0 0 1-14.273048 40.780138z m0 0" p-id="43406" fill="#11bbdb"></path><path d="M383.419567 536.25882h263.031893l-126.418429-265.0709z m0 0" p-id="43407" fill="#11bbdb"></path></svg>