<?xml version="1.0" standalone="no"?><!DOCTYPE svg PUBLIC "-//W3C//DTD SVG 1.1//EN" "http://www.w3.org/Graphics/SVG/1.1/DTD/svg11.dtd"><svg t="1776268715128" class="icon" viewBox="0 0 1024 1024" version="1.1" xmlns="http://www.w3.org/2000/svg" p-id="66564" width="256" height="256" xmlns:xlink="http://www.w3.org/1999/xlink"><path d="M512 512m-512 0a512 512 0 1 0 1024 0 512 512 0 1 0-1024 0Z" fill="#F2CF61" p-id="66565"></path><path d="M944.096 786.512a17.864 17.864 0 0 0-1.608-3.968 18.616 18.616 0 0 0-1.984-4.912 19.4 19.4 0 0 0-1.984-4.92 18.96 18.96 0 0 0-1.984-4.896 18.192 18.192 0 0 0-1.984-4.896 18.296 18.296 0 0 0-1.984-4.912 19.264 19.264 0 0 0-1.976-4.92 19.36 19.36 0 0 0-1.984-4.888 18.672 18.672 0 0 0-1.984-4.904 18.944 18.944 0 0 0-1.984-4.912 18.944 18.944 0 0 0-1.984-4.912 19.584 19.584 0 0 0-1.984-4.92 19.432 19.432 0 0 0-1.984-4.88 18.4 18.4 0 0 0-1.984-4.912 18.24 18.24 0 0 0-1.984-4.904 18.56 18.56 0 0 0-1.984-4.912 18.456 18.456 0 0 0-1.984-4.896 18.488 18.488 0 0 0-1.976-4.904 18.88 18.88 0 0 0-1.984-4.92 18.952 18.952 0 0 0-1.984-4.904 18.872 18.872 0 0 0-2-4.928 19.68 19.68 0 0 0-1.968-4.88 19.472 19.472 0 0 0-1.984-4.904 19.232 19.232 0 0 0-1.984-4.904 19.888 19.888 0 0 0-1.984-4.92 18.792 18.792 0 0 0-1.984-4.888 18.296 18.296 0 0 0-1.984-4.912 18.144 18.144 0 0 0-1.984-4.904 18.944 18.944 0 0 0-1.984-4.912 18.896 18.896 0 0 0-1.984-4.904 18.192 18.192 0 0 0-1.984-4.896 18.192 18.192 0 0 0-1.984-4.912 19 19 0 0 0-1.984-4.92 19.016 19.016 0 0 0-1.984-4.888 18.144 18.144 0 0 0-1.984-4.904 18.144 18.144 0 0 0-1.984-4.904 18.344 18.344 0 0 0-1.984-4.92 18.56 18.56 0 0 0-1.984-4.912 18.52 18.52 0 0 0-1.984-4.888 18.296 18.296 0 0 0-1.984-4.912 18.352 18.352 0 0 0-1.984-4.904 18.72 18.72 0 0 0-1.984-4.92 18.52 18.52 0 0 0-1.984-4.888 18.24 18.24 0 0 0-1.984-4.904 18.296 18.296 0 0 0-1.984-4.912 18.232 18.232 0 0 0-2-4.952 18.536 18.536 0 0 0-1.968-4.848 18.344 18.344 0 0 0-1.984-4.92 18.352 18.352 0 0 0-1.984-4.904 19.208 19.208 0 0 0-1.976-4.912 19.296 19.296 0 0 0-1.984-4.896 18.896 18.896 0 0 0-1.984-4.904 18.832 18.832 0 0 0-1.984-4.912 18.616 18.616 0 0 0-1.984-4.896 19.344 19.344 0 0 0-1.984-4.92 19.24 19.24 0 0 0-1.984-4.896 18.4 18.4 0 0 0-1.984-4.912 17.88 17.88 0 0 0-2.496-5.856 415.168 415.168 0 0 0-12.984-18.488c-1.376-1.848-2.784-3.624-4.168-5.456a381.488 381.488 0 0 0-14.472-17.88c-3.352-3.888-6.776-7.68-10.208-11.376-1.472-1.552-2.888-3.16-4.376-4.688a330.352 330.352 0 0 0-14.984-14.64l-0.032-0.024a292.296 292.296 0 0 0-15.952-13.52c-1.36-1.088-2.744-2.088-4.128-3.144a268.496 268.496 0 0 0-30.08-20.096c-1.512-0.872-3.048-1.8-4.608-2.648a247.608 247.608 0 0 0-17.24-8.64c-0.088-0.032-0.152-0.072-0.208-0.104-31.216-13.952-64.792-20.864-100.2-19.384l-0.888 0.056c-1.44-1.6-2.888-3.176-4.344-4.752l-0.56-0.608a275.144 275.144 0 0 0-3.904-4.128c-0.272-0.304-0.56-0.6-0.848-0.896a250 250 0 0 0-3.848-3.856l-0.968-0.96a206.376 206.376 0 0 0-3.904-3.64c-0.328-0.296-0.656-0.608-1-0.896a144.32 144.32 0 0 0-3.976-3.408c-0.352-0.264-0.68-0.552-1.024-0.832-1.36-1.088-2.72-2.12-4.096-3.12-0.344-0.24-0.688-0.504-1.032-0.752a128.32 128.32 0 0 0-4.232-2.792l-1.032-0.632a78.632 78.632 0 0 0-5.424-2.92 65.28 65.28 0 0 0-4.56-2.008c-0.344-0.128-0.688-0.24-1.016-0.376a52.248 52.248 0 0 0-4.8-1.52c-0.328-0.096-0.656-0.168-0.984-0.24a50.432 50.432 0 0 0-5.056-1c-0.288-0.048-0.584-0.072-0.896-0.112a53.408 53.408 0 0 0-5.36-0.432l-0.8 0.016a51.84 51.84 0 0 0-5.744 0.248l-0.544 0.072a55.08 55.08 0 0 0-6.256 1.032h-0.016a69.928 69.928 0 0 0-6.048 1.592c-40 13-112.664 57.304-115.328 68.664-0.208 9.968-0.44 17.824-1.424 28.112-23.976 14.856-47.832 32.496-63.928 43.592-10.408-18.776-53.8-93.544-116.144-83.336l-0.136 0.016h0.008c-0.576 0.104-1.144 0.16-1.72 0.256-34.672 6.592-36.176 22.232-28.472 39.048 0.56 1.624 1.232 3.264 1.984 4.912 0.56 1.632 1.232 3.272 1.992 4.936 0.552 1.608 1.224 3.24 1.976 4.872 0.56 1.632 1.24 3.28 2 4.944 0.552 1.608 1.224 3.24 1.976 4.88 0.552 1.624 1.224 3.264 1.984 4.912 0.56 1.624 1.232 3.264 1.992 4.928 0.552 1.608 1.224 3.24 1.976 4.88 0.552 1.624 1.224 3.264 1.984 4.912 0.552 1.624 1.224 3.264 1.984 4.912 0.56 1.616 1.232 3.264 1.992 4.928 0.552 1.608 1.224 3.24 1.976 4.88 0.552 1.624 1.224 3.264 1.984 4.912 0.552 1.624 1.224 3.264 1.984 4.912 0.56 1.624 1.232 3.264 1.992 4.928 0.552 1.608 1.224 3.24 1.976 4.88 0.56 1.632 1.232 3.28 2 4.944 0.552 1.608 1.224 3.24 1.976 4.872 0.56 1.624 1.232 3.272 1.992 4.936 0.392 1.152 0.824 2.288 1.32 3.448 3.272 39.48-4.2 79.752-12.584 103.056-4.968 13.8-4.968 20.144-2.04 22.336 0.08 2.496 0.808 4.048 1.992 4.952 0.088 2.48 0.816 4.016 1.984 4.896 0.088 2.48 0.816 4.016 1.984 4.904 0.088 2.48 0.816 4.016 1.984 4.912 0.088 2.48 0.816 4.008 1.992 4.888 0.08 2.496 0.808 4.024 1.984 4.928 0.088 2.48 0.816 4.016 1.984 4.904 0.088 2.472 0.816 4.016 1.984 4.904 0.088 2.472 0.816 4.008 1.984 4.904 0.088 2.48 0.816 4.008 1.984 4.904 0.088 2.488 0.816 4.016 1.984 4.912 0.088 2.48 0.816 4.008 1.984 4.904 0.088 2.48 0.816 4.008 1.984 4.896 0.088 2.488 0.816 4.016 1.984 4.92 0.088 2.48 0.816 4.016 1.984 4.904 0.088 2.472 0.816 4.008 1.984 4.904 0.088 2.472 0.816 4.016 1.992 4.904 0.088 2.472 0.808 4 1.984 4.888 0.088 2.488 0.808 4.032 1.992 4.912 0.088 2.48 0.816 4.016 1.984 4.912 0.088 2.48 0.816 4.016 1.984 4.904 0.088 2.488 0.816 4.016 1.984 4.912 0.088 2.48 0.816 4.008 1.984 4.912 0.088 2.472 0.816 4.016 1.984 4.904 0.088 2.48 0.816 4 1.984 4.904 0.088 2.48 0.816 4 1.984 4.904 0.088 2.472 0.816 4.008 1.984 4.912 0.088 2.472 0.816 4.016 1.984 4.896 0.088 2.48 0.816 4.016 1.984 4.904 0.088 2.488 0.816 4.016 1.984 4.912 0.088 2.464 0.816 4 1.984 4.896 0.088 2.48 0.816 4.016 1.992 4.904 0.088 2.488 0.816 4.016 1.984 4.912 0.088 2.48 0.816 4.008 1.984 4.912 0.088 2.472 0.816 4.008 1.984 4.904 0.088 2.48 0.816 4.016 1.984 4.904 0.088 2.488 0.816 4.016 1.984 4.912 0.088 2.48 0.816 4.008 1.984 4.896 0.088 2.48 0.816 4.016 1.984 4.904 0.088 2.488 0.816 4.016 1.984 4.912 0.088 2.48 0.816 4.016 1.984 4.912 0.088 2.472 0.816 4.008 1.992 4.904 0.088 2.464 0.808 4 1.984 4.888 0.088 2.488 0.808 4.016 1.984 4.904 0.088 2.488 0.808 4.016 1.984 4.912 0.088 2.472 0.816 4.016 1.992 4.896 0.08 2.496 0.808 4.032 1.984 4.92 0.088 2.488 0.816 4.008 1.984 4.912 0.088 2.48 0.816 4.008 1.984 4.912 0.088 2.472 0.816 4.016 1.984 4.904 0.088 2.48 0.816 4.016 1.984 4.896 0.088 2.48 0.816 4.008 1.984 4.912 0.088 2.488 0.816 4.008 1.984 4.904 0.088 2.48 0.816 4.016 1.984 4.92 0.088 2.472 0.816 4 1.984 4.888 0.088 2.472 0.816 4 1.984 4.888 0.088 2.488 0.808 4.016 1.984 4.92 0.088 2.48 0.808 4.016 1.984 4.896 0.088 2.48 0.816 4.008 1.984 4.904 0.088 2.496 0.808 4.016 1.992 4.912 0.08 2.488 0.808 4.016 1.984 4.92 0.088 2.48 0.816 4.016 1.984 4.904 0.088 2.488 0.816 4.016 1.984 4.912 0.088 2.48 0.816 4.008 1.984 4.896 0.088 2.48 0.816 4.016 1.984 4.912 0.088 2.48 0.816 4.008 1.984 4.904 0.088 2.48 0.816 4.016 1.992 4.912 0.088 2.464 0.808 3.984 1.984 4.888 0.088 2.48 0.808 4.016 1.984 4.904 0.088 2.488 0.808 4.016 1.984 4.904 0.088 2.488 0.808 4.016 1.984 4.904 0.088 2.488 0.816 4.016 1.984 4.904 0.024 0.656 0.2 1.096 0.312 1.616A504.368 504.368 0 0 0 512 1024c181.72 0 341.2-94.768 432.096-237.488z" fill="#E6C45C" p-id="66566"></path><path d="M603.336 371.664C577.336 342.664 552 311.664 512 324.664s-112.664 57.304-115.328 68.664c-0.336 15.664-0.672 26-4.008 49 52.672-27.664 210.672-70.664 210.672-70.664z" fill="#263740" p-id="66567"></path><path d="M518.04 323.072c23.952 5.624 42.48 27.592 61.296 48.592 0 0-119.312 32.48-185.136 59.144-0.44 3.512-0.92 7.24-1.536 11.52 52.672-27.664 210.672-70.664 210.672-70.664-24.664-27.504-48.752-56.744-85.296-48.592z" fill="#1E2C33" p-id="66568"></path><path d="M502.664 602.664c-9.328 20.336-32.664 42.248-25.664 52.752 23.248 14 85.504 15.76 106 14.248 12.296-0.896 9.664-57.672 21-69.336-22.664 5-101.336 2.336-101.336 2.336z" fill="#263740" p-id="66569"></path><path d="M578.168 602.832c-9.24 15.576-7.584 66-19.168 66.832a106.88 106.88 0 0 1-3.816 0.208c11.592 0.392 21.624 0.232 27.816-0.208 12.296-0.896 9.664-57.672 21-69.336-5.744 1.264-15.08 2.04-25.832 2.504z" fill="#1E2C33" p-id="66570"></path><path d="M331.328 465.032c18.672-12.872 47.784-34.56 75.4-50.496 44.272-25.536 121.608-50.208 188.48-53.016 93.808-3.936 174.504 50.848 233.656 140.072a18.808 18.808 0 0 1-7.264 27.232l-3.968 1.984 3.968 1.992a18.896 18.896 0 0 1 10.288 14.824c0.704 6.36-1.888 12.176-6.848 16.192-2.704 2.192-61.032 55.928-180.112 60.176-34.088 1.208-100.168 2-136.448-1.52-53.968-5.224-110.264-22.328-170.352-46.656l-6.8-110.784z" fill="#CC584C" p-id="66571"></path><path d="M381.056 476.896a8 8 0 0 1-4.504-14.616c65.176-44.224 153.504-75.08 219.784-76.8 4.392-0.224 8.08 3.384 8.192 7.808a7.984 7.984 0 0 1-7.808 8.192c-63.472 1.632-148.344 31.392-211.2 74.032a7.776 7.776 0 0 1-4.464 1.384z" fill="#E67368" p-id="66572"></path><path d="M821.592 532.816l-3.968-1.984 3.968-1.984a18.856 18.856 0 0 0 9.768-11.984 18.736 18.736 0 0 0-2.504-15.248C769.688 412.4 688.992 357.6 595.184 361.536c-1.048 0.048-2.152 0.144-3.192 0.184 84.928 4.36 158.136 57.336 212.864 139.872 2.968 4.488 3.872 10.04 2.504 15.248a18.856 18.856 0 0 1-9.768 11.984l-3.968 1.984 3.968 1.984a18.872 18.872 0 0 1 10.296 14.816c0.696 6.36-1.896 12.184-6.856 16.2-2.704 2.184-61.032 55.92-180.112 60.168a1823.12 1823.12 0 0 1-48.552 0.984c27.032 0.184 54.352-0.336 72.552-0.984 119.08-4.248 177.408-57.984 180.112-60.168 4.96-4.016 7.552-9.84 6.856-16.2a18.84 18.84 0 0 0-10.296-14.792z" fill="#BF5347" p-id="66573"></path><path d="M831.888 547.608a18.92 18.92 0 0 0-10.296-14.816l-3.968-1.984 3.968-1.984a18.856 18.856 0 0 0 9.768-11.984 18.736 18.736 0 0 0-2.504-15.248c-36.832-55.512-81.984-97.688-133.472-120.688-29.408 19.504-58.048 64.472-60.408 112.272-2.424 48.768 2.68 92.808 46.784 127.68 94.208-12.36 140.84-55.104 143.248-57.064 4.984-3.976 7.576-9.824 6.88-16.184z" fill="#263740" p-id="66574"></path><path d="M821.592 532.816l-3.968-1.984 3.968-1.984a18.856 18.856 0 0 0 9.768-11.984 18.736 18.736 0 0 0-2.504-15.248c-36.832-55.512-81.984-97.688-133.472-120.688-3.168 2.12-6.36 4.576-9.504 7.264 45.464 24.064 85.64 63.192 118.936 113.424a18.808 18.808 0 0 1-7.272 27.232l-3.944 1.984 3.96 1.984a18.864 18.864 0 0 1 10.296 14.816c0.704 6.36-1.888 12.184-6.848 16.184-2.224 1.832-42.448 38.512-123.12 53.8 1.28 1.088 2.496 2.184 3.832 3.264 94.224-12.36 140.856-55.096 143.264-57.064 4.96-4 7.536-9.832 6.848-16.184a18.656 18.656 0 0 0-10.24-14.816z" fill="#1E2C33" p-id="66575"></path><path d="M751.064 474.352a32 32 0 0 1-32.008 32c-17.688 0-31.992-14.328-31.992-32s14.304-32 31.992-32a32 32 0 0 1 32.008 32z" fill="#EDEDED" p-id="66576"></path><path d="M719.064 474.352m-16 0a16 16 0 1 0 32 0 16 16 0 1 0-32 0Z" fill="#242424" p-id="66577"></path><path d="M331.328 465.032c-10.512-18.96-54.656-95.104-117.992-83.064s-16.064 54.264-4 78.704c25.336 51.328 14.624 125.056 1.976 160.184-12.648 35.144 6.688 22.216 25.352 14.36 18.664-7.872 92.248-12.248 101.456-59.408 9.208-47.144-6.792-110.776-6.792-110.776z" fill="#263740" p-id="66578"></path><path d="M331.328 465.032c-10.416-18.792-53.864-93.672-116.28-83.32 50 8.304 85.432 66 92.28 83.32 10.2 25.824 16.008 63.64 6.8 110.8s-82.792 51.512-101.456 59.408c-1.784 0.752-3.568 1.528-5.336 2.352-0.104 12.864 14.784 3.792 29.336-2.352 18.664-7.872 92.248-12.248 101.456-59.408s-6.8-110.8-6.8-110.8z" fill="#1E2C33" p-id="66579"></path></svg>